<svg viewBox="0 0 400 300" xmlns="http://www.w3.org/2000/svg">
  <defs>
    <linearGradient id="plateGradient" x1="0%" y1="0%" x2="100%" y2="100%">
      <stop offset="0%" style="stop-color:#D4AF37;stop-opacity:1" />
      <stop offset="100%" style="stop-color:#B8860B;stop-opacity:1" />
    </linearGradient>
    <linearGradient id="meatGradient" x1="0%" y1="0%" x2="100%" y2="100%">
      <stop offset="0%" style="stop-color:#8B4513;stop-opacity:1" />
      <stop offset="100%" style="stop-color:#654321;stop-opacity:1" />
    </linearGradient>
    <linearGradient id="riceGradient" x1="0%" y1="0%" x2="0%" y2="100%">
      <stop offset="0%" style="stop-color:#FFFACD;stop-opacity:1" />
      <stop offset="100%" style="stop-color:#F5DEB3;stop-opacity:1" />
    </linearGradient>
  </defs>
  
  <!-- Background -->
  <rect width="400" height="300" fill="#2c3e50"/>
  
  <!-- Main plate -->
  <ellipse cx="200" cy="230" rx="140" ry="55" fill="url(#plateGradient)" opacity="0.9"/>
  <ellipse cx="200" cy="210" rx="130" ry="45" fill="#F5F5DC"/>
  
  <!-- Rice portion -->
  <ellipse cx="160" cy="190" rx="40" ry="30" fill="url(#riceGradient)"/>
  <!-- Rice texture -->
  <circle cx="150" cy="185" r="1.5" fill="#F0E68C" opacity="0.8"/>
  <circle cx="165" cy="188" r="1" fill="#F0E68C" opacity="0.8"/>
  <circle cx="155" cy="195" r="1.5" fill="#F0E68C" opacity="0.8"/>
  <circle cx="170" cy="192" r="1" fill="#F0E68C" opacity="0.8"/>
  
  <!-- Main protein -->
  <ellipse cx="240" cy="185" rx="35" ry="25" fill="url(#meatGradient)"/>
  <!-- Grill marks -->
  <rect x="225" y="175" width="30" height="2" fill="#4A4A4A" opacity="0.6"/>
  <rect x="225" y="185" width="30" height="2" fill="#4A4A4A" opacity="0.6"/>
  <rect x="225" y="195" width="30" height="2" fill="#4A4A4A" opacity="0.6"/>
  
  <!-- Vegetables -->
  <ellipse cx="190" cy="210" rx="15" ry="12" fill="#FF6347"/> <!-- Tomato -->
  <ellipse cx="220" cy="208" rx="12" ry="10" fill="#32CD32"/> <!-- Cucumber -->
  <ellipse cx="170" cy="205" rx="10" ry="8" fill="#FFA500"/>  <!-- Carrot -->
  <ellipse cx="210" cy="215" rx="8" ry="6" fill="#9370DB"/>   <!-- Onion -->
  
  <!-- Sauce/Gravy -->
  <ellipse cx="200" cy="195" rx="25" ry="8" fill="#8B4513" opacity="0.6"/>
  
  <!-- Garnish -->
  <circle cx="180" cy="180" r="2" fill="#228B22"/>
  <circle cx="250" cy="175" r="1.5" fill="#228B22"/>
  <circle cx="220" cy="200" r="2" fill="#228B22"/>
  
  <!-- Cutlery -->
  <!-- Knife -->
  <rect x="290" y="150" width="3" height="70" fill="url(#plateGradient)"/>
  <rect x="285" y="145" width="13" height="8" fill="url(#plateGradient)" rx="2"/>
  
  <!-- Fork -->
  <rect x="310" y="150" width="3" height="70" fill="url(#plateGradient)"/>
  <rect x="305" y="145" width="13" height="8" fill="url(#plateGradient)" rx="2"/>
  <rect x="306" y="140" width="2" height="10" fill="url(#plateGradient)"/>
  <rect x="310" y="140" width="2" height="10" fill="url(#plateGradient)"/>
  <rect x="314" y="140" width="2" height="10" fill="url(#plateGradient)"/>
  <rect x="318" y="140" width="2" height="10" fill="url(#plateGradient)"/>
  
  <!-- Side bowl -->
  <ellipse cx="120" cy="160" rx="25" ry="18" fill="url(#plateGradient)" opacity="0.8"/>
  <ellipse cx="120" cy="155" rx="20" ry="12" fill="#DC143C" opacity="0.7"/>
  
  <!-- Decorative elements -->
  <circle cx="70" cy="80" r="12" fill="#D4AF37" opacity="0.5"/>
  <circle cx="340" cy="90" r="10" fill="#D4AF37" opacity="0.4"/>
  <circle cx="50" cy="200" r="8" fill="#D4AF37" opacity="0.3"/>
</svg>