<svg viewBox="0 0 400 300" xmlns="http://www.w3.org/2000/svg">
  <defs>
    <linearGradient id="plateGradient" x1="0%" y1="0%" x2="100%" y2="100%">
      <stop offset="0%" style="stop-color:#D4AF37;stop-opacity:1" />
      <stop offset="100%" style="stop-color:#B8860B;stop-opacity:1" />
    </linearGradient>
    <linearGradient id="pastaGradient" x1="0%" y1="0%" x2="0%" y2="100%">
      <stop offset="0%" style="stop-color:#F5DEB3;stop-opacity:1" />
      <stop offset="100%" style="stop-color:#DEB887;stop-opacity:1" />
    </linearGradient>
    <linearGradient id="sauceGradient" x1="0%" y1="0%" x2="0%" y2="100%">
      <stop offset="0%" style="stop-color:#FF6347;stop-opacity:1" />
      <stop offset="100%" style="stop-color:#DC143C;stop-opacity:1" />
    </linearGradient>
  </defs>
  
  <!-- Background -->
  <rect width="400" height="300" fill="#2c3e50"/>
  
  <!-- Plate -->
  <ellipse cx="200" cy="230" rx="130" ry="50" fill="url(#plateGradient)" opacity="0.9"/>
  <ellipse cx="200" cy="210" rx="120" ry="40" fill="#F5F5DC"/>
  
  <!-- Pasta noodles (spaghetti style) -->
  <path d="M120 180 Q160 160 200 180 Q240 200 280 180" stroke="url(#pastaGradient)" stroke-width="8" fill="none"/>
  <path d="M130 190 Q170 170 210 190 Q250 210 290 190" stroke="url(#pastaGradient)" stroke-width="8" fill="none"/>
  <path d="M110 200 Q150 180 190 200 Q230 220 270 200" stroke="url(#pastaGradient)" stroke-width="8" fill="none"/>
  <path d="M125 170 Q165 150 205 170 Q245 190 285 170" stroke="url(#pastaGradient)" stroke-width="8" fill="none"/>
  <path d="M115 210 Q155 190 195 210 Q235 230 275 210" stroke="url(#pastaGradient)" stroke-width="8" fill="none"/>
  
  <!-- Sauce spots -->
  <ellipse cx="180" cy="185" rx="15" ry="8" fill="url(#sauceGradient)" opacity="0.8"/>
  <ellipse cx="220" cy="195" rx="18" ry="10" fill="url(#sauceGradient)" opacity="0.8"/>
  <ellipse cx="160" cy="195" rx="12" ry="6" fill="url(#sauceGradient)" opacity="0.8"/>
  <ellipse cx="240" cy="180" rx="10" ry="5" fill="url(#sauceGradient)" opacity="0.8"/>
  
  <!-- Parmesan cheese (white dots) -->
  <circle cx="190" cy="175" r="3" fill="#FFFACD"/>
  <circle cx="210" cy="185" r="2.5" fill="#FFFACD"/>
  <circle cx="230" cy="175" r="3" fill="#FFFACD"/>
  <circle cx="170" cy="185" r="2" fill="#FFFACD"/>
  <circle cx="250" cy="185" r="2.5" fill="#FFFACD"/>
  
  <!-- Basil leaves -->
  <ellipse cx="200" cy="190" rx="8" ry="12" fill="#228B22" opacity="0.8" transform="rotate(30 200 190)"/>
  <ellipse cx="240" cy="190" rx="6" ry="10" fill="#228B22" opacity="0.8" transform="rotate(-45 240 190)"/>
  
  <!-- Fork -->
  <rect x="300" y="160" width="3" height="60" fill="url(#plateGradient)"/>
  <rect x="295" y="155" width="13" height="8" fill="url(#plateGradient)" rx="2"/>
  <rect x="296" y="150" width="2" height="10" fill="url(#plateGradient)"/>
  <rect x="300" y="150" width="2" height="10" fill="url(#plateGradient)"/>
  <rect x="304" y="150" width="2" height="10" fill="url(#plateGradient)"/>
  <rect x="308" y="150" width="2" height="10" fill="url(#plateGradient)"/>
  
  <!-- Decorative elements -->
  <circle cx="80" cy="90" r="10" fill="#D4AF37" opacity="0.5"/>
  <circle cx="330" cy="100" r="8" fill="#D4AF37" opacity="0.4"/>
  <circle cx="60" cy="160" r="6" fill="#D4AF37" opacity="0.3"/>
</svg>