<svg viewBox="0 0 400 300" xmlns="http://www.w3.org/2000/svg">
  <defs>
    <linearGradient id="plateGradient" x1="0%" y1="0%" x2="100%" y2="100%">
      <stop offset="0%" style="stop-color:#D4AF37;stop-opacity:1" />
      <stop offset="100%" style="stop-color:#B8860B;stop-opacity:1" />
    </linearGradient>
  </defs>
  
  <!-- Background -->
  <rect width="400" height="300" fill="#2c3e50"/>
  
  <!-- Plate -->
  <ellipse cx="200" cy="220" rx="140" ry="60" fill="url(#plateGradient)" opacity="0.9"/>
  <ellipse cx="200" cy="200" rx="130" ry="50" fill="#F5F5DC"/>
  
  <!-- Lettuce leaves -->
  <ellipse cx="180" cy="180" rx="25" ry="35" fill="#90EE90" opacity="0.8" transform="rotate(-20 180 180)"/>
  <ellipse cx="220" cy="175" rx="30" ry="40" fill="#98FB98" opacity="0.8" transform="rotate(15 220 175)"/>
  <ellipse cx="160" cy="200" rx="20" ry="30" fill="#90EE90" opacity="0.8" transform="rotate(-40 160 200)"/>
  <ellipse cx="240" cy="195" rx="25" ry="35" fill="#98FB98" opacity="0.8" transform="rotate(30 240 195)"/>
  
  <!-- Tomatoes -->
  <circle cx="190" cy="190" r="12" fill="#FF6347"/>
  <circle cx="210" cy="185" r="10" fill="#FF6347"/>
  <circle cx="170" cy="195" r="8" fill="#FF6347"/>
  
  <!-- Carrots -->
  <ellipse cx="200" cy="200" rx="6" ry="20" fill="#FFA500" transform="rotate(45 200 200)"/>
  <ellipse cx="220" cy="190" rx="5" ry="15" fill="#FFA500" transform="rotate(-30 220 190)"/>
  
  <!-- Cucumber -->
  <ellipse cx="185" cy="195" rx="4" ry="15" fill="#32CD32" transform="rotate(60 185 195)"/>
  <ellipse cx="215" cy="200" rx="4" ry="12" fill="#32CD32" transform="rotate(-45 215 200)"/>
  
  <!-- Fork -->
  <rect x="280" y="150" width="3" height="60" fill="url(#plateGradient)"/>
  <rect x="275" y="145" width="13" height="8" fill="url(#plateGradient)" rx="2"/>
  <rect x="276" y="140" width="2" height="10" fill="url(#plateGradient)"/>
  <rect x="280" y="140" width="2" height="10" fill="url(#plateGradient)"/>
  <rect x="284" y="140" width="2" height="10" fill="url(#plateGradient)"/>
  <rect x="288" y="140" width="2" height="10" fill="url(#plateGradient)"/>
  
  <!-- Decorative elements -->
  <circle cx="120" cy="100" r="8" fill="#D4AF37" opacity="0.5"/>
  <circle cx="300" cy="80" r="6" fill="#D4AF37" opacity="0.4"/>
</svg>