<svg viewBox="0 0 400 300" xmlns="http://www.w3.org/2000/svg">
  <defs>
    <linearGradient id="plateGradient" x1="0%" y1="0%" x2="100%" y2="100%">
      <stop offset="0%" style="stop-color:#D4AF37;stop-opacity:1" />
      <stop offset="100%" style="stop-color:#B8860B;stop-opacity:1" />
    </linearGradient>
    <linearGradient id="foodGradient" x1="0%" y1="0%" x2="100%" y2="100%">
      <stop offset="0%" style="stop-color:#DEB887;stop-opacity:1" />
      <stop offset="100%" style="stop-color:#D2B48C;stop-opacity:1" />
    </linearGradient>
  </defs>
  
  <!-- Background -->
  <rect width="400" height="300" fill="#2c3e50"/>
  
  <!-- Plate -->
  <ellipse cx="200" cy="220" rx="120" ry="50" fill="url(#plateGradient)" opacity="0.9"/>
  <ellipse cx="200" cy="200" rx="110" ry="40" fill="#F5F5DC"/>
  
  <!-- Appetizers - small bites -->
  <ellipse cx="170" cy="180" rx="15" ry="10" fill="url(#foodGradient)"/>
  <ellipse cx="200" cy="175" rx="18" ry="12" fill="url(#foodGradient)"/>
  <ellipse cx="230" cy="180" rx="15" ry="10" fill="url(#foodGradient)"/>
  <ellipse cx="185" cy="195" rx="12" ry="8" fill="url(#foodGradient)"/>
  <ellipse cx="215" cy="195" rx="14" ry="9" fill="url(#foodGradient)"/>
  
  <!-- Garnish dots -->
  <circle cx="175" cy="175" r="2" fill="#228B22"/>
  <circle cx="205" cy="170" r="2" fill="#FF6347"/>
  <circle cx="235" cy="175" r="2" fill="#228B22"/>
  <circle cx="190" cy="190" r="1.5" fill="#FF6347"/>
  <circle cx="220" cy="190" r="1.5" fill="#228B22"/>
  
  <!-- Toothpicks -->
  <rect x="168" y="160" width="1" height="15" fill="#8B4513"/>
  <rect x="198" y="155" width="1" height="15" fill="#8B4513"/>
  <rect x="228" y="160" width="1" height="15" fill="#8B4513"/>
  
  <!-- Small sauce bowl -->
  <ellipse cx="150" cy="160" rx="20" ry="15" fill="url(#plateGradient)"/>
  <ellipse cx="150" cy="155" rx="15" ry="10" fill="#DC143C" opacity="0.8"/>
  
  <!-- Decorative elements -->
  <circle cx="100" cy="120" r="10" fill="#D4AF37" opacity="0.4"/>
  <circle cx="320" cy="100" r="8" fill="#D4AF37" opacity="0.5"/>
  <circle cx="80" cy="180" r="6" fill="#D4AF37" opacity="0.3"/>
</svg>