<svg viewBox="0 0 400 300" xmlns="http://www.w3.org/2000/svg">
  <defs>
    <linearGradient id="cupGradient" x1="0%" y1="0%" x2="100%" y2="100%">
      <stop offset="0%" style="stop-color:#D4AF37;stop-opacity:1" />
      <stop offset="100%" style="stop-color:#B8860B;stop-opacity:1" />
    </linearGradient>
    <linearGradient id="coffeeGradient" x1="0%" y1="0%" x2="0%" y2="100%">
      <stop offset="0%" style="stop-color:#8B4513;stop-opacity:1" />
      <stop offset="100%" style="stop-color:#654321;stop-opacity:1" />
    </linearGradient>
  </defs>
  
  <!-- Background -->
  <rect width="400" height="300" fill="#2c3e50"/>
  
  <!-- Coffee cup -->
  <ellipse cx="200" cy="220" rx="80" ry="60" fill="url(#cupGradient)" opacity="0.9"/>
  <rect x="120" y="120" width="160" height="140" rx="20" fill="url(#cupGradient)"/>
  
  <!-- Coffee -->
  <ellipse cx="200" cy="140" rx="60" ry="40" fill="url(#coffeeGradient)"/>
  
  <!-- Steam -->
  <path d="M170 100 Q170 80 180 90 Q180 70 190 80 Q190 60 200 70" 
        stroke="#D4AF37" stroke-width="3" fill="none" opacity="0.7"/>
  <path d="M200 100 Q200 80 210 90 Q210 70 220 80 Q220 60 230 70" 
        stroke="#D4AF37" stroke-width="3" fill="none" opacity="0.7"/>
  
  <!-- Handle -->
  <path d="M280 160 Q320 160 320 200 Q320 240 280 240" 
        stroke="url(#cupGradient)" stroke-width="8" fill="none"/>
  
  <!-- Decorative elements -->
  <circle cx="100" cy="80" r="15" fill="#D4AF37" opacity="0.6"/>
  <circle cx="320" cy="100" r="12" fill="#D4AF37" opacity="0.4"/>
  <circle cx="80" cy="200" r="10" fill="#D4AF37" opacity="0.5"/>
</svg>