<svg viewBox="0 0 400 300" xmlns="http://www.w3.org/2000/svg">
  <defs>
    <linearGradient id="bunGradient" x1="0%" y1="0%" x2="0%" y2="100%">
      <stop offset="0%" style="stop-color:#DEB887;stop-opacity:1" />
      <stop offset="100%" style="stop-color:#D2B48C;stop-opacity:1" />
    </linearGradient>
    <linearGradient id="pattyGradient" x1="0%" y1="0%" x2="0%" y2="100%">
      <stop offset="0%" style="stop-color:#8B4513;stop-opacity:1" />
      <stop offset="100%" style="stop-color:#654321;stop-opacity:1" />
    </linearGradient>
  </defs>
  
  <!-- Background -->
  <rect width="400" height="300" fill="#2c3e50"/>
  
  <!-- Plate -->
  <ellipse cx="200" cy="250" rx="130" ry="30" fill="#D4AF37" opacity="0.8"/>
  
  <!-- Bottom bun -->
  <ellipse cx="200" cy="220" rx="80" ry="25" fill="url(#bunGradient)"/>
  
  <!-- Lettuce -->
  <ellipse cx="200" cy="205" rx="75" ry="8" fill="#90EE90"/>
  
  <!-- Tomato -->
  <ellipse cx="200" cy="195" rx="70" ry="6" fill="#FF6347"/>
  
  <!-- Cheese -->
  <ellipse cx="200" cy="185" rx="72" ry="4" fill="#FFD700"/>
  
  <!-- Patty -->
  <ellipse cx="200" cy="175" rx="65" ry="15" fill="url(#pattyGradient)"/>
  
  <!-- More lettuce -->
  <ellipse cx="200" cy="160" rx="70" ry="8" fill="#90EE90"/>
  
  <!-- Top bun -->
  <ellipse cx="200" cy="150" rx="80" ry="25" fill="url(#bunGradient)"/>
  
  <!-- Sesame seeds -->
  <ellipse cx="180" cy="145" rx="2" ry="3" fill="#F5DEB3"/>
  <ellipse cx="200" cy="142" rx="2" ry="3" fill="#F5DEB3"/>
  <ellipse cx="220" cy="145" rx="2" ry="3" fill="#F5DEB3"/>
  <ellipse cx="190" cy="148" rx="2" ry="3" fill="#F5DEB3"/>
  <ellipse cx="210" cy="148" rx="2" ry="3" fill="#F5DEB3"/>
  
  <!-- French fries -->
  <rect x="280" y="180" width="6" height="40" fill="#FFD700" transform="rotate(10 283 200)"/>
  <rect x="290" y="175" width="6" height="45" fill="#FFD700" transform="rotate(-5 293 197)"/>
  <rect x="300" y="180" width="6" height="42" fill="#FFD700" transform="rotate(15 303 201)"/>
  <rect x="310" y="175" width="6" height="40" fill="#FFD700" transform="rotate(-10 313 195)"/>
  
  <!-- Decorative elements -->
  <circle cx="80" cy="100" r="12" fill="#D4AF37" opacity="0.5"/>
  <circle cx="330" cy="120" r="10" fill="#D4AF37" opacity="0.4"/>
</svg>