<svg viewBox="0 0 400 300" xmlns="http://www.w3.org/2000/svg">
  <defs>
    <linearGradient id="crustGradient" x1="0%" y1="0%" x2="100%" y2="100%">
      <stop offset="0%" style="stop-color:#DEB887;stop-opacity:1" />
      <stop offset="100%" style="stop-color:#D2B48C;stop-opacity:1" />
    </linearGradient>
    <linearGradient id="sauceGradient" x1="0%" y1="0%" x2="100%" y2="100%">
      <stop offset="0%" style="stop-color:#FF6347;stop-opacity:1" />
      <stop offset="100%" style="stop-color:#DC143C;stop-opacity:1" />
    </linearGradient>
  </defs>
  
  <!-- Background -->
  <rect width="400" height="300" fill="#2c3e50"/>
  
  <!-- Pizza slice base -->
  <path d="M200 80 L120 220 Q180 240 280 220 Z" fill="url(#crustGradient)"/>
  
  <!-- Sauce -->
  <path d="M200 90 L130 210 Q175 225 270 210 Z" fill="url(#sauceGradient)"/>
  
  <!-- Cheese -->
  <path d="M200 95 L135 205 Q175 218 265 205 Z" fill="#FFFACD" opacity="0.9"/>
  
  <!-- Pepperoni -->
  <circle cx="180" cy="140" r="12" fill="#8B0000"/>
  <circle cx="220" cy="160" r="12" fill="#8B0000"/>
  <circle cx="190" cy="180" r="10" fill="#8B0000"/>
  <circle cx="240" cy="180" r="11" fill="#8B0000"/>
  <circle cx="200" cy="200" r="9" fill="#8B0000"/>
  
  <!-- Herbs/Oregano -->
  <circle cx="170" cy="150" r="2" fill="#228B22" opacity="0.7"/>
  <circle cx="210" cy="140" r="1.5" fill="#228B22" opacity="0.7"/>
  <circle cx="230" cy="170" r="2" fill="#228B22" opacity="0.7"/>
  <circle cx="185" cy="190" r="1.5" fill="#228B22" opacity="0.7"/>
  <circle cx="220" cy="190" r="2" fill="#228B22" opacity="0.7"/>
  
  <!-- Crust edge highlight -->
  <path d="M120 220 Q140 235 180 240 Q220 245 280 220" 
        stroke="#B8860B" stroke-width="3" fill="none"/>
  
  <!-- Additional pizza slices in background -->
  <path d="M100 100 L60 180 Q80 190 140 180 Z" fill="url(#crustGradient)" opacity="0.6"/>
  <path d="M300 120 L340 200 Q320 210 260 200 Z" fill="url(#crustGradient)" opacity="0.6"/>
  
  <!-- Decorative elements -->
  <circle cx="50" cy="60" r="8" fill="#D4AF37" opacity="0.5"/>
  <circle cx="350" cy="80" r="10" fill="#D4AF37" opacity="0.4"/>
</svg>