<svg viewBox="0 0 400 300" xmlns="http://www.w3.org/2000/svg">
  <defs>
    <linearGradient id="bowlGradient" x1="0%" y1="0%" x2="100%" y2="100%">
      <stop offset="0%" style="stop-color:#D4AF37;stop-opacity:1" />
      <stop offset="100%" style="stop-color:#B8860B;stop-opacity:1" />
    </linearGradient>
    <linearGradient id="soupGradient" x1="0%" y1="0%" x2="0%" y2="100%">
      <stop offset="0%" style="stop-color:#FF6B35;stop-opacity:1" />
      <stop offset="100%" style="stop-color:#D2691E;stop-opacity:1" />
    </linearGradient>
  </defs>
  
  <!-- Background -->
  <rect width="400" height="300" fill="#2c3e50"/>
  
  <!-- Bowl -->
  <ellipse cx="200" cy="240" rx="120" ry="40" fill="url(#bowlGradient)"/>
  <ellipse cx="200" cy="200" rx="120" ry="15" fill="url(#bowlGradient)" opacity="0.8"/>
  <path d="M80 200 Q80 160 120 140 L280 140 Q320 160 320 200 L320 240 Q320 260 280 260 L120 260 Q80 260 80 240 Z" 
        fill="url(#bowlGradient)"/>
  
  <!-- Soup -->
  <ellipse cx="200" cy="180" rx="100" ry="12" fill="url(#soupGradient)"/>
  <ellipse cx="200" cy="175" rx="95" ry="10" fill="url(#soupGradient)" opacity="0.8"/>
  
  <!-- Steam -->
  <path d="M150 140 Q150 120 160 130 Q160 110 170 120 Q170 100 180 110" 
        stroke="#D4AF37" stroke-width="2" fill="none" opacity="0.7"/>
  <path d="M200 140 Q200 120 210 130 Q210 110 220 120 Q220 100 230 110" 
        stroke="#D4AF37" stroke-width="2" fill="none" opacity="0.7"/>
  <path d="M230 140 Q230 120 240 130 Q240 110 250 120 Q250 100 260 110" 
        stroke="#D4AF37" stroke-width="2" fill="none" opacity="0.7"/>
  
  <!-- Spoon -->
  <ellipse cx="120" cy="120" rx="15" ry="8" fill="url(#bowlGradient)" transform="rotate(-30 120 120)"/>
  <rect x="110" y="80" width="4" height="40" fill="url(#bowlGradient)" transform="rotate(-30 112 100)"/>
  
  <!-- Decorative herbs -->
  <circle cx="180" cy="175" r="3" fill="#228B22" opacity="0.8"/>
  <circle cx="220" cy="175" r="2" fill="#228B22" opacity="0.8"/>
  <circle cx="200" cy="175" r="2" fill="#228B22" opacity="0.8"/>
</svg>